<?xml version="1.0" encoding="UTF-8"?>
<svg version="1.2" baseProfile="tiny-ps" xmlns="http://www.w3.org/2000/svg" viewBox="0 0 564.1 564.1">
  <title>Sentinely</title>
  <desc>Sentinely brand logo</desc>
  <rect width="564.1" height="564.1" fill="#131009"/>
  <path fill-rule="evenodd" fill="#FD751D" d="M277.5,37.1c-1.7,0.6-9.7,4.8-10.9,5.7c-1.6,1.3-9.9,5.5-11.7,5.9
	c-1.3,0.2-2.5,0.8-3.4,1.7c-0.7,0.6-5.7,3.2-17,8.8c-12.4,6.2-16.2,8.2-17.2,9c-0.9,0.8-4.7,2.7-17.2,9c-12.4,6.2-16.2,8.2-17.2,9
	c-0.9,0.8-5.2,3-20.1,10.4s-19.2,9.7-20.1,10.4c-1,0.8-5.5,3.1-21.8,11.3l-20.6,10.3l-1.2,1.3c-1.4,1.5-4.5,7.2-4.8,9.1
	c-0.1,0.5-0.4,1.6-0.8,2.3l-0.6,1.3v121.1l0.6,1.4c0.5,1,0.7,2,0.8,3.1l0.2,1.7l1.7,3.4c0.7,1.6,1.6,3.1,2.6,4.6
	c0.5,0.7,1.3,1.8,1.7,2.5c0.7,1.4,1.3,2,2.9,2.8c0.6,0.3,1.9,1.3,3,2.2l1.9,1.7l3.4,1.7l3.4,1.7l2.4,0.1l2.4,0.1l1.4,0.6l1.4,0.6
	l35.2,0.1l35.2,0.1l0.7,0.4c1.1,0.6,2.9,2.6,3.6,4c0.4,0.8,1.3,2,2.9,3.7c1.2,1.2,2.2,2.5,3.1,3.9c0.6,1,1.6,2.2,3.8,4.6
	c2.2,2.3,3.2,3.5,3.6,4.3c0.4,0.8,1.4,2,2.9,3.7c1.2,1.2,2.2,2.5,3.1,3.9c0.6,1,1.6,2.2,3.8,4.5c2.3,2.5,3.2,3.5,3.7,4.5
	c1,1.9,7,7.9,8.1,8.2c1.9,0.5,2.5-0.1,5.1-5.2c0.9-1.9,1.9-3.7,3.1-5.5c0.7-0.9,2.2-3.7,6-11.2c3.8-7.5,5.2-10.3,6-11.2
	c0.8-0.9,2.4-4,6.7-12.7c4.4-8.7,6-11.8,6.7-12.7c0.7-0.9,2.1-3.5,5.3-9.9c4.7-9.4,4.9-9.7,6.3-9.7c1.3,0,2.8,2.2,3.3,4.7
	c0.1,0.7,1.2,3.1,3.7,8.2c2.5,5,3.6,7.5,3.7,8.2c0.1,0.7,1.1,2.8,3,6.7s2.9,6,3,6.7s1.1,2.8,3,6.7c1.9,3.9,2.9,6,3,6.7
	s1.1,2.8,3,6.7c1.9,3.9,2.9,6,3,6.7c0.1,0.7,1.2,3.1,3.7,8.2c2.5,5,3.6,7.5,3.7,8.2c0.1,0.6,0.8,2.2,1.5,3.7
	c0.6,1.2,1.1,2.4,1.5,3.7c0.2,1.2,5.3,11.6,6,12.3c0.9,0.8,1.7,0.6,3.3-0.8c2.3-2,5-5.1,5.6-6.3c0.5-0.9,1.5-2.1,5.1-5.8
	c3.8-3.9,4.7-4.9,5.2-6c0.5-1,1.4-2,3.7-4.5c2.2-2.3,3.2-3.5,3.8-4.5c0.7-1.2,1.6-2.2,5.1-5.8c2.6-2.7,4.6-4.9,5.1-5.7
	c0.4-0.6,0.8-1.1,1.3-1.6l0.5-0.3l29.8-0.1c16.4,0,30.1,0,30.6,0.1c1.6,0.3,2.1,1.4,1.3,3.3c-0.2,0.5-0.5,1.4-0.5,1.9
	c-0.1,0.5-0.4,1.5-0.8,2.2c-0.3,0.7-0.6,1.7-0.7,2.2s-0.4,1.5-0.8,2.2s-0.6,1.7-0.7,2.3c-0.1,0.5-0.8,2.2-1.5,3.7
	c-0.6,1.2-1.1,2.4-1.5,3.7c-0.1,0.6-0.8,2.2-1.5,3.7c-0.6,1.2-1.1,2.4-1.5,3.7c-0.3,1.5-6.1,13.3-7.5,14.9c-1.1,1.7-2.1,3.4-3,5.2
	c-0.9,1.8-1.9,3.6-3,5.2c-0.8,1.2-1.6,2.4-2.2,3.7s-1.4,2.6-2.2,3.7c-0.5,0.7-1.2,1.7-1.5,2.2s-1,1.6-1.5,2.2s-1.2,1.7-1.5,2.3
	c-0.3,0.6-1.3,1.9-2.2,3c-0.9,0.9-1.6,1.9-2.2,3c-0.4,0.8-1.4,2-3,3.7c-1.6,1.8-2.6,3-3,3.7c-0.5,0.9-1.5,2-4.4,5.1
	c-3.1,3.2-3.9,4.2-4.5,5.3c-0.6,1.2-1.6,2.3-10.1,10.8l-9.4,9.5l-1.5,0.8c-1.2,0.7-2.1,1.4-6,5.2c-3.7,3.6-4.8,4.6-6,5.2
	c-1,0.6-2.2,1.6-4.6,3.8c-2.3,2.2-3.5,3.2-4.3,3.6c-1.1,0.6-2.1,1.4-3,2.2c-0.9,0.8-1.9,1.6-3,2.2c-0.6,0.3-2,1.3-3,2.2
	c-0.9,0.8-1.9,1.6-3,2.2c-0.6,0.3-1.6,1-2.3,1.5c-0.7,0.5-1.7,1.2-2.3,1.5c-0.6,0.3-1.9,1.3-3,2.2c-0.9,0.8-1.9,1.6-3,2.2
	c-0.6,0.3-1.6,1-2.3,1.5s-1.7,1.2-2.2,1.5s-1.6,1-2.2,1.5c-0.7,0.5-1.7,1.2-2.2,1.5s-1.6,1-2.2,1.5c-1.2,0.8-2.4,1.6-3.7,2.2
	c-1.3,0.6-2.6,1.4-3.7,2.2c-1.8,1.4-6.3,3.6-7.4,3.6s-2.9-0.8-4.5-2.1c-1.2-0.8-2.4-1.6-3.7-2.2c-1.3-0.6-2.6-1.4-3.7-2.2
	c-0.7-0.6-1.5-1.1-2.2-1.5c-0.6-0.3-1.6-1-2.2-1.5c-0.7-0.6-1.4-1.1-2.2-1.5c-0.6-0.3-1.6-1-2.2-1.5c-0.7-0.6-1.5-1.1-2.2-1.5
	c-0.6-0.3-1.6-1-2.2-1.5c-0.7-0.6-1.5-1.1-2.3-1.5c-0.6-0.3-1.9-1.3-2.9-2.2c-0.9-0.8-1.9-1.6-2.9-2.2c-0.6-0.3-1.6-1-2.3-1.5
	c-0.7-0.6-1.5-1.1-2.3-1.5c-0.6-0.3-1.9-1.3-2.9-2.2c-0.9-0.8-1.9-1.6-3-2.2c-0.8-0.4-2-1.4-3.7-3c-1.7-1.6-3-2.6-3.7-3
	c-0.8-0.4-2-1.4-3.7-3c-1.1-1.1-2.4-2.1-3.8-3c-0.9-0.5-2.1-1.5-6.5-5.8c-4.7-4.6-5.5-5.4-6.9-6.1c-2.1-1.2-9.5-8.5-10.6-10.6
	c-0.6-1.2-1.4-2.1-6.7-7.5c-4.9-5-6.1-6.3-6.6-7.3c-0.7-1.1-1.4-2.1-2.3-3c-0.8-0.9-1.6-1.9-2.2-3c-0.9-1.3-1.9-2.6-3-3.7
	c-1.6-1.7-2.6-3-2.9-3.7c-0.3-0.6-1-1.6-1.5-2.3c-0.6-0.7-1.1-1.5-1.5-2.2c-0.4-0.8-0.9-1.5-1.5-2.2c-0.6-0.7-1.1-1.5-1.5-2.2
	c-0.3-0.6-0.9-1.6-1.5-2.2c-0.6-0.8-1.7-2.7-3-5.2c-0.9-1.8-1.9-3.6-3-5.2c-1.3-1.6-11.7-22.3-11.9-23.9c-0.1-0.6-0.8-2.2-1.5-3.7
	c-0.6-1.2-1.1-2.4-1.5-3.7c-0.1-0.5-0.4-1.6-0.8-2.3c-0.3-0.7-0.7-1.7-0.7-2.3c-0.4-1.9-1.4-3.1-3-3.5c-1-0.3-38-0.2-38.8,0.1
	c-1.6,0.6-2,3.1-0.8,5.7c0.3,0.8,0.7,1.8,0.8,2.3s0.4,1.5,0.8,2.2c0.3,0.7,0.7,1.7,0.7,2.2c0.1,0.5,0.4,1.5,0.8,2.2s0.7,1.7,0.8,2.2
	s0.4,1.5,0.7,2.2c0.3,0.7,0.7,1.7,0.8,2.2s0.4,1.5,0.8,2.2c0.3,0.7,0.7,1.7,0.7,2.3c0.1,0.6,1,2.6,2.2,5.2c1.3,2.8,2.1,4.6,2.2,5.2
	c0.3,1.5,10.6,22.2,11.9,23.9c0.8,1.2,1.6,2.4,2.2,3.7c0.6,1.3,1.4,2.6,2.2,3.7c0.8,1.2,1.6,2.4,2.2,3.7c0.6,1.3,1.4,2.6,2.2,3.7
	c0.5,0.7,1.2,1.7,1.5,2.2s0.9,1.6,1.5,2.2c0.5,0.7,1.2,1.7,1.5,2.2s0.9,1.6,1.5,2.2c0.5,0.7,1.2,1.7,1.5,2.3c0.3,0.6,1.3,1.9,2.2,3
	c0.8,0.9,1.6,1.9,2.2,3c0.4,0.8,1.4,2,3,3.7c1.2,1.2,2.2,2.5,3.1,3.9c0.5,1,1.4,2.1,4.4,5.2c3.2,3.3,3.9,4.1,4.5,5.3l0.7,1.4
	l12.2,12.2l12.2,12.2l1.4,0.7c1.2,0.6,2,1.4,6,5.2c3.8,3.7,4.9,4.6,5.9,5.2c0.7,0.4,2.1,1.4,3.1,2.4c1,0.9,2.4,1.9,3,2.2
	c0.7,0.4,2,1.4,3.7,3c1.1,1.1,2.4,2.1,3.7,3c0.6,0.3,2,1.3,3,2.2s2.4,1.9,2.9,2.2c0.6,0.3,1.6,1,2.3,1.5s1.7,1.2,2.3,1.5
	c0.6,0.3,1.9,1.3,2.9,2.2c0.9,0.8,1.9,1.6,2.9,2.2c0.6,0.3,1.6,1,2.3,1.5s1.7,1.2,2.2,1.5s1.6,1,2.2,1.5c0.7,0.6,1.5,1.1,2.2,1.5
	c0.6,0.3,1.6,1,2.2,1.5s1.7,1.2,2.2,1.5s1.6,1,2.2,1.5c0.7,0.5,1.7,1.2,2.2,1.5s1.6,1,2.2,1.5s1.7,1.2,2.2,1.5s1.6,1,2.2,1.5
	c1.2,0.9,2.4,1.6,3.7,2.2c1.3,0.6,2.6,1.4,3.7,2.2c1.2,0.8,2.4,1.6,3.7,2.2c1.3,0.6,2.6,1.4,3.7,2.2c0.8,0.6,2.5,1.6,4.6,2.7
	l3.4,1.7h9.2l0.6-0.4c0.4-0.2,1.1-0.7,1.7-1.2c0.6-0.5,2.1-1.4,3.5-2.1c1.3-0.6,2.6-1.4,3.7-2.2c0.7-0.5,1.7-1.2,2.2-1.5
	c0.6-0.3,1.6-1,2.2-1.5c1.2-0.8,2.4-1.6,3.7-2.2c1.3-0.6,2.6-1.4,3.7-2.2c1.2-0.8,2.4-1.6,3.7-2.2c1.4-0.7,3.1-1.7,3.7-2.2
	c0.7-0.6,1.5-1.1,2.2-1.5c0.6-0.3,1.6-1,2.2-1.5s1.7-1.2,2.2-1.5s1.6-1,2.2-1.5c0.7-0.5,1.7-1.2,2.2-1.5s1.6-1,2.2-1.5
	c0.7-0.6,1.5-1.1,2.3-1.5c1.1-0.6,2-1.4,3-2.2s1.9-1.6,3-2.2c0.6-0.3,1.6-1,2.3-1.5s1.7-1.2,2.3-1.5c0.6-0.3,1.9-1.3,3-2.2
	c0.9-0.8,1.9-1.6,3-2.2c0.6-0.3,2-1.3,3-2.2c0.9-0.8,1.9-1.6,3-2.2c0.7-0.4,2-1.4,3.7-3c1.2-1.2,2.5-2.2,3.9-3.1
	c1-0.5,2.1-1.4,5.2-4.5c3.3-3.2,4.1-3.9,5.3-4.5l1.4-0.7l15.2-15.2l15.2-15.2l0.7-1.4c0.6-1.2,1.3-2,4.5-5.3c3-3.1,3.9-4.2,4.5-5.2
	c0.4-0.7,1.4-2.1,2.3-3.1c0.8-0.9,1.6-1.9,2.2-3c0.3-0.6,1.3-2,2.2-3c0.8-0.9,1.6-1.9,2.2-3c0.3-0.6,1-1.6,1.5-2.3
	c0.5-0.7,1.2-1.7,1.5-2.2s1-1.6,1.5-2.2s1.2-1.7,1.5-2.2s1-1.6,1.5-2.2c0.9-1.2,1.6-2.4,2.2-3.7c0.6-1.3,1.4-2.6,2.2-3.7
	c0.6-0.8,1.7-2.7,3-5.2c0.9-1.8,1.9-3.6,3-5.2c1.3-1.6,8.7-16.4,9-17.9c0.1-0.7,0.9-2.5,2.2-5.2c1.3-2.7,2.1-4.6,2.2-5.2
	c0.1-0.6,0.8-2.2,1.5-3.7c0.6-1.2,1.1-2.4,1.5-3.7c0.1-0.5,0.4-1.6,0.8-2.3s0.6-1.7,0.8-2.2s0.4-1.5,0.7-2.2
	c0.3-0.7,0.7-1.7,0.8-2.2s0.4-1.5,0.8-2.2c0.3-0.7,0.6-1.7,0.7-2.2c0.1-0.5,0.4-1.5,0.8-2.2s0.6-1.7,0.7-2.2
	c0.1-0.5,0.5-1.5,0.8-2.3c0.4-0.9,0.6-1.8,0.7-3s0.3-2,0.7-3c0.3-0.7,0.7-1.8,0.8-2.3c0.1-0.5,0.5-1.5,0.8-2.3
	c0.5-1.2,0.6-1.6,0.7-3.7s0.2-2.5,0.8-3.7s0.6-1.6,0.8-3.7l0.1-2.3l0.6-1.4l0.6-1.4V289l-0.6-1.3c-0.3-0.7-0.6-1.5-0.8-2.3
	c-0.3-1.6-0.8-2.3-4.2-5.7l-3.3-3.3l-1.8-0.9c-1.1-0.6-2.2-1-3.3-1.3c-0.8-0.2-2-0.6-2.6-0.9l-1.1-0.5h-97.2l-0.7,0.4
	c-0.4,0.2-1.1,0.7-1.6,1.1c-0.5,0.5-1.6,1.1-2.3,1.5c-1.1,0.6-2.2,1.5-7.4,6.6c-7,6.9-7.1,7-9,5.6c-0.8-0.6-2.6-4.2-2.9-5.7
	c-0.1-0.8-1.5-3.8-5.2-11.2c-3.7-7.4-5.1-10.4-5.2-11.2s-1.4-3.4-4.5-9.7c-3.1-6.3-4.4-9-4.5-9.7c-0.1-0.7-1.4-3.4-4.5-9.7
	c-3.1-6.3-4.4-8.9-4.5-9.7c-0.1-0.8-1.8-4.4-6.7-14.2c-4.9-9.9-6.6-13.4-6.7-14.2c-0.2-1.4-7.4-15.9-8.1-16.4
	c-0.7-0.4-1.7-0.4-2.4,0.2c-0.5,0.4-1.4,2-5,9.2c-3.2,6.4-4.6,9-5.3,9.9c-0.7,0.9-2,3.2-4.5,8.2c-2.5,5-3.8,7.3-4.5,8.2
	c-0.7,0.9-2.1,3.4-5.2,9.7c-3.1,6.3-4.5,8.8-5.2,9.7c-0.7,0.9-2,3.2-4.5,8.2s-3.8,7.3-4.5,8.2s-2,3.2-4.5,8.2
	c-2.5,4.9-3.8,7.4-4.5,8.2c-0.5,0.6-1.5,2.2-2.1,3.4c-1.3,2.6-1.6,2.8-3.1,2.8c-0.8,0-10.3-9.6-11.2-11.4c-0.6-1.2-1.3-1.9-3.6-4.2
	l-2.8-2.8l-3.4-1.7l-3.4-1.7l-32.9-0.1l-32.9-0.1l-0.5-0.4c-0.3-0.3-0.6-0.6-0.8-1c-0.3-0.8-0.3-86.8-0.1-87.9
	c0.3-1.1,0.8-1.4,13.8-7.9c9.5-4.8,12.7-6.5,13.6-7.2c1-0.8,8.1-4.4,36.6-18.7c28.5-14.3,35.6-17.9,36.6-18.7
	c1.3-1,43.8-22.5,45.5-22.9c2-0.6,12.1,3.6,15.7,6.5c1,0.8,6,3.4,24.6,12.7c18.6,9.3,23.7,11.9,24.6,12.7c1,0.8,7.5,4.2,33.6,17.2
	c23.6,11.8,32.7,16.4,33.4,17c1,0.9,2.1,1.5,3.4,1.7c1.6,0.4,7.2,3.2,8.5,4.3c0.6,0.5,1.5,1.1,2.1,1.5c0.5,0.3,1,0.7,1.4,1.2
	l0.3,0.5l0.1,26.8l0.1,26.8l0.4,0.5c0.7,1,0.3,1,19.7,1s18.9,0,19.7-1l0.4-0.5l0.1-32.9l0.1-32.9l0.6-1.3c0.8-1.8,0.8-2.8,0-4.5
	c-0.3-0.7-0.6-1.7-0.7-2.3c-0.1-0.6-0.9-2.4-1.9-4.4c-2.3-4.6-3-5.4-6.9-7.4c-1.4-0.7-2.7-1.5-3.9-2.3c-1-0.8-5.1-2.9-18.7-9.7
	c-13.7-6.8-17.7-8.9-18.7-9.7c-1-0.8-5.5-3.1-21.6-11.2c-16.2-8.1-20.7-10.4-21.6-11.2c-0.9-0.8-5.2-3-20.1-10.5
	s-19.2-9.7-20.1-10.4c-1-0.8-5-2.9-18.7-9.7c-13.7-6.8-17.7-8.9-18.7-9.7c-1.6-1.3-6.9-4-8.9-4.5c-0.8-0.2-2-0.6-2.6-0.9l-1.1-0.5
	l-3.5,0C279.3,36.9,278.1,36.9,277.5,37.1 M381.6,188.1c-0.4,0.1-1,0.4-1.4,0.6c-0.4,0.2-1.5,0.4-2.4,0.5c-1.2,0.1-2,0.3-3,0.7
	s-1.8,0.6-3,0.8c-1.1,0.1-2,0.3-2.7,0.6c-0.6,0.3-1.7,0.7-2.5,0.9s-1.8,0.5-2.2,0.7s-1.4,0.5-2.2,0.7c-0.9,0.2-1.9,0.6-2.2,0.8
	s-1.4,0.5-2.2,0.8c-0.8,0.2-2.5,0.9-3.7,1.5c-1.2,0.6-2.9,1.3-3.7,1.5c-1.6,0.4-12.8,5.8-14.1,6.9c-1.3,1.1-1.7,2.9-1,4.5
	c0.6,1.1,4,4.4,5.3,5c0.6,0.3,1.7,1,2.3,1.5c0.8,0.6,2.5,1.6,4.6,2.7l3.4,1.7h13.7l3.7-1.8l3.7-1.8l4.1-4.1l4.1-4.1l1.8-3.6l1.8-3.6
	l0.2-1.7c0.1-1.3,0.3-2,0.8-3.1l0.6-1.4l0.1-2.3c0.1-4-0.2-4.8-2-5C382.7,187.8,382.1,187.9,381.6,188.1 M179.1,188.2
	c-0.2,0.1-0.6,0.4-0.8,0.6l-0.4,0.5v8.9l0.6,1.3c0.3,0.8,0.7,1.8,0.8,2.3c0.3,1.4,1.8,4.5,3,5.9c0.6,0.7,1.1,1.5,1.5,2.3
	c0.8,1.6,4.1,4.9,5.8,5.8c0.7,0.4,1.7,1,2.3,1.5c0.9,0.8,2,1.4,3.1,1.6c0.6,0.1,1.6,0.5,2.3,0.8l1.3,0.6h12.1l1.3-0.6
	c0.7-0.3,1.8-0.7,2.3-0.8c1.3-0.3,1.9-0.6,3.1-1.6c0.6-0.5,1.5-1.1,2.1-1.4c1.2-0.6,5.2-4.3,7-6.3c1.4-1.7,1.4-2.5-0.4-4.2
	c-1.3-1.2-15.5-8.3-17.8-8.9c-1.3-0.4-2.5-0.9-3.7-1.5c-1.2-0.6-2.5-1.1-3.7-1.5c-0.9-0.2-1.9-0.6-2.2-0.7c-0.4-0.2-1.4-0.5-2.2-0.7
	s-2-0.6-2.5-0.9c-0.9-0.4-1.8-0.6-2.7-0.6c-1-0.1-2.1-0.3-3-0.8c-1.2-0.5-1.6-0.6-3.7-0.7c-1,0-1.9-0.2-2.9-0.4
	C180.5,188.3,179.6,188.1,179.1,188.2"/>
</svg>
